<svg width="480" height="480" viewBox="0 0 480 480" fill="none" xmlns="http://www.w3.org/2000/svg">
<path d="M380 400H100C94.6956 400 89.6085 402.107 85.8578 405.858C82.1071 409.609 80 414.696 80 420C80 425.304 82.1071 430.392 85.8578 434.142C89.6085 437.893 94.6956 440 100 440H380C385.304 440 390.391 437.893 394.142 434.142C397.893 430.392 400 425.304 400 420C400 414.696 397.893 409.609 394.142 405.858C390.391 402.107 385.304 400 380 400ZM100 360H101.8L185.2 352.4C194.336 351.49 202.881 347.465 209.4 341L389.4 161C396.386 153.619 400.162 143.77 399.9 133.611C399.637 123.451 395.358 113.81 388 106.8L333.2 52.0001C326.048 45.282 316.676 41.4273 306.867 41.1691C297.057 40.911 287.496 44.2675 280 50.6001L100 230.6C93.5353 237.119 89.51 245.664 88.5999 254.8L80 338.2C79.7305 341.129 80.1106 344.082 81.1132 346.848C82.1157 349.613 83.716 352.124 85.8 354.2C87.6688 356.054 89.8851 357.52 92.3218 358.516C94.7586 359.511 97.3678 360.015 100 360ZM305.4 80.0001L360 134.6L320 173.6L266.4 120L305.4 80.0001Z" fill="black"/>
</svg>
